<?xml version="1.0" encoding="UTF-8" standalone="no"?>
<svg
   xmlns:dc="http://purl.org/dc/elements/1.1/"
   xmlns:cc="http://creativecommons.org/ns#"
   xmlns:rdf="http://www.w3.org/1999/02/22-rdf-syntax-ns#"
   xmlns:svg="http://www.w3.org/2000/svg"
   xmlns="http://www.w3.org/2000/svg"
   viewBox="0 0 173.40655 152.00891"
   version="1.1">
  <g>
    <path
       d="m 0.00238528,127.26685 c 0,0 5.72620092,-17.74969 9.99999972,-25.98967 C 19.184398,83.574062 43.269999,51.551397 43.269999,51.551397 L 86.537615,0.57560901 86.633592,9.1042411 86.97957,29.632872 57.430223,52.394224 c -16.114699,19.118744 -17.845798,26.077728 -17.91149,26.273244 -0.07834,0.233176 -1.507322,9.199075 17.785624,9.199075 H 86.71678 v 6.808155 6.808152 H 50.884384 c 0,0 -16.368941,1.50466 -21.082392,7.25 -5.122893,6.24442 -6.488969,16.6128 -3.25,24.01184 4.488002,10.25231 27.5,19.26184 27.5,19.26184 H 7.527188 0.00238528 Z"
       style="fill:#6f8a91;fill-opacity:1;fill-rule:nonzero;stroke:#6f8a91;stroke-width:0.35832396;stroke-opacity:1" />
    <path
       d="m 173.40658,127.26924 c 0,0 -5.7262,-17.74969 -10,-25.98967 C 154.22456,83.576453 130.13897,51.553788 130.13897,51.553788 L 86.871345,0.57800055 l -0.096,8.52863205 -0.34598,20.5286304 29.549355,22.761352 c 16.1147,19.118744 17.8458,26.077728 17.91149,26.273244 0.0783,0.233176 1.50732,9.199075 -17.78563,9.199075 H 86.692155 v 6.808155 6.808151 h 35.832405 c 0,0 16.36894,1.50465 21.08239,7.24999 5.12289,6.24442 6.48897,16.6128 3.25,24.01184 -4.488,10.25231 -27.5,19.26184 -27.5,19.26184 h 46.5248 7.52481 z"
       style="fill:#6f8a91;fill-opacity:1;fill-rule:nonzero;stroke:#6f8a91;stroke-width:0.35832396;stroke-opacity:1" />
    <path
       d="m 54.03643,151.84604 c -0.04583,-0.10971 -1.095832,-0.63053 -2.333332,-1.15738 -8.68642,-3.69813 -16.47153,-8.50221 -20.893621,-12.89316 -2.9696,-2.94868 -4.113652,-4.81101 -5.021933,-8.17488 -0.636854,-2.35862 -0.775817,-8.27267 -0.251422,-10.70012 1.217239,-5.63463 3.756989,-10.01703 7.0179,-12.10955 2.774427,-1.78034 7.732377,-3.35023 13.856444,-4.3875 l 3.707367,-0.62795 h 36.585265 36.585262 l 3.70737,0.62795 c 6.12669,1.03772 11.0388,2.5992 13.8918,4.416 7.29287,4.64409 9.81931,19.66775 4.64801,27.63961 -3.23203,4.98236 -12.94173,11.56867 -24.08244,16.33566 -1.1,0.47068 -2.0375,0.94016 -2.08333,1.04328 -0.11244,0.25298 -65.227635,0.24105 -65.33334,-0.012 z"
       style="fill:#0089f5;fill-opacity:0.67336684;fill-rule:nonzero;stroke:#6f8a91;stroke-width:0.25;stroke-opacity:1" />
    <path
       d="M 51.453098,87.264967 C 45.78603,86.53682 41.885969,84.576942 40.476796,81.7491 c -0.994252,-1.995203 -0.88416,-2.943688 0.710436,-6.120705 2.355986,-4.693985 6.172277,-10.241883 12.500454,-18.17242 l 3.761962,-4.714531 14.571695,-11.22297 c 8.014432,-6.172633 14.62503,-11.222969 14.690215,-11.222969 0.06518,0 6.674027,5.051014 14.686322,11.224476 l 14.5678,11.224477 3.27237,4.088024 c 6.45141,8.059445 10.62609,14.10424 12.98091,18.795913 1.5946,3.177017 1.70469,4.125502 0.71044,6.120705 -1.16937,2.34662 -4.08307,4.121312 -8.3984,5.115347 -2.31491,0.53324 -2.52049,0.536483 -36.827902,0.580803 -19.265773,0.0249 -35.272751,-0.05472 -36.25,-0.180283 z"
       style="fill:#d58100;fill-opacity:0.82914573;fill-rule:nonzero;stroke:#6f8a91;stroke-width:0.25;stroke-opacity:1" />
  </g>
</svg>
