<?xml version="1.0" encoding="UTF-8" standalone="no"?>
<svg
   xmlns:dc="http://purl.org/dc/elements/1.1/"
   xmlns:cc="http://creativecommons.org/ns#"
   xmlns:rdf="http://www.w3.org/1999/02/22-rdf-syntax-ns#"
   xmlns:svg="http://www.w3.org/2000/svg"
   xmlns="http://www.w3.org/2000/svg"
   viewBox="0 0 173.40655 152.00891"
   version="1.1">
  <g>
    <path
       d="m 0.00238528,127.26685 c 0,0 5.72620092,-17.74969 9.99999972,-25.98967 C 19.184398,83.574062 43.269999,51.551397 43.269999,51.551397 L 86.537615,0.57560901 86.633592,9.1042411 86.97957,29.632872 57.430223,52.394224 c -16.114699,19.118744 -17.845798,26.077728 -17.91149,26.273244 -0.07834,0.233176 -1.507322,9.199075 17.785624,9.199075 H 86.71678 v 6.808155 6.808152 H 50.884384 c 0,0 -16.368941,1.50466 -21.082392,7.25 -5.122893,6.24442 -6.488969,16.6128 -3.25,24.01184 4.488002,10.25231 27.5,19.26184 27.5,19.26184 H 7.527188 0.00238528 Z"
       style="fill:#6f8a91;fill-opacity:1;fill-rule:nonzero;stroke:#6f8a91;stroke-width:0.35832396;stroke-opacity:1" />
    <path
       d="m 173.40658,127.26924 c 0,0 -5.7262,-17.74969 -10,-25.98967 C 154.22456,83.576453 130.13897,51.553788 130.13897,51.553788 L 86.871345,0.57800055 l -0.096,8.52863205 -0.34598,20.5286304 29.549355,22.761352 c 16.1147,19.118744 17.8458,26.077728 17.91149,26.273244 0.0783,0.233176 1.50732,9.199075 -17.78563,9.199075 H 86.692155 v 6.808155 6.808151 h 35.832405 c 0,0 16.36894,1.50465 21.08239,7.24999 5.12289,6.24442 6.48897,16.6128 3.25,24.01184 -4.488,10.25231 -27.5,19.26184 -27.5,19.26184 h 46.5248 7.52481 z"
       style="fill:#6f8a91;fill-opacity:1;fill-rule:nonzero;stroke:#6f8a91;stroke-width:0.35832396;stroke-opacity:1" />
  </g>
</svg>
