<?xml version="1.0" encoding="UTF-8" standalone="no"?>
<svg
   xmlns:dc="http://purl.org/dc/elements/1.1/"
   xmlns:cc="http://creativecommons.org/ns#"
   xmlns:rdf="http://www.w3.org/1999/02/22-rdf-syntax-ns#"
   xmlns:svg="http://www.w3.org/2000/svg"
   xmlns="http://www.w3.org/2000/svg"
   version="1.1"
   viewBox="0 0 173.25001 152.17183"
   height="20">
  <g transform="translate(17.232528,-22.379147)">
    <path
       d="M -17.232528,108.66247 V 42.773963 H -6.6970549 3.8384172 l 0.0033,-6.772804 c 0.0031,-6.400356 0.04642,-6.865469 0.787926,-8.457845 0.9342311,-2.00624 3.3390741,-4.231145 5.1644741,-4.778047 0.8752917,-0.262245 4.4766757,-0.390882 10.8061087,-0.385985 10.67226,0.0083 11.064682,0.08128 13.494324,2.510917 2.175196,2.175195 2.334181,2.849549 2.520927,10.692884 l 0.16723,7.02365 33.33097,0.08522 33.330963,0.08523 0.11497,-6.272725 c 0.12954,-7.067517 0.41882,-8.132623 2.87978,-10.603254 2.62545,-2.635742 2.83167,-2.680483 12.89162,-2.796826 7.74646,-0.08959 9.20118,-0.02598 10.68585,0.467132 2.20708,0.733076 4.61964,2.978129 5.64265,5.250889 0.71325,1.584579 0.79531,2.301092 0.89869,7.847677 l 0.11376,6.103887 h 9.67277 9.67276 v 65.888507 65.88851 h -86.624973 -86.625 z m 160.874988,9.36487 V 75.550988 H 69.058007 -5.5264457 v 42.476352 42.47635 H 69.058007 143.64246 Z M 126.91949,49.295921 V 35.415853 h -6.85642 -6.85642 v 13.880068 13.880068 h 6.85642 6.85642 z M 27.250579,48.125315 V 34.746936 h -7.023648 -7.023647 v 13.378379 13.378378 h 7.023647 7.023648 z"
       style="fill:#6f8a91" />
    <path
       transform="matrix(0.26458333,0,0,0.26458333,-21.425676,26.295725)"
       d="m 136.21145,392.40003 -35.1365,-29.92296 10.0755,-22.96524 11.9074,-29.37692 73.22488,52.95773 c 21.01963,15.20183 65.52232,40.48138 66.06958,40.48138 0.37595,0 79.80855,-51.0706 138.00629,-97.15163 l 112.06331,-88.73182 37.58254,27.02536 39.67809,29.63186 -171.55597,109.05748 c -86.92465,55.25766 -155.37378,100.8485 -155.67382,100.94975 -0.23646,0.0798 -22.39429,-12.41357 -66.65496,-45.96989 z"
       style="fill:#6f8a91" />
  </g>
</svg>
