<?xml version="1.0" encoding="UTF-8" standalone="no"?>
<svg
   xmlns:dc="http://purl.org/dc/elements/1.1/"
   xmlns:cc="http://creativecommons.org/ns#"
   xmlns:rdf="http://www.w3.org/1999/02/22-rdf-syntax-ns#"
   xmlns:svg="http://www.w3.org/2000/svg"
   xmlns="http://www.w3.org/2000/svg"
   viewBox="0 0 173.40655 152.00891"
   version="1.1">
  <g transform="translate(0.06533776,-0.02707002)">
    <path
       d="M 1.3519823,150.48554 C 0.17328718,149.39767 0.07606688,149.03309 0.22911918,146.27491 0.57437643,140.05291 4.8422367,129.50533 13.403797,113.715 16.425241,108.14247 21.016814,100.08932 23.607296,95.81911 L 28.317263,88.055082 71.324041,52.75531 C 94.977767,33.340438 114.47835,17.507665 114.6587,17.571374 c 0.80146,0.283115 37.32975,41.297183 37.01405,41.559462 -0.19439,0.161505 -19.39743,16.463335 -42.6734,36.226292 l -42.319951,35.932642 -8.437725,3.71544 C 32.502159,146.33925 14.676227,152.072 6.0538937,151.78864 c -2.9286416,-0.096 -3.5941329,-0.28067 -4.7019114,-1.3031 z M 46.107265,133.38251 c 7.318482,-3.0783 13.264021,-5.72348 13.212309,-5.87819 -0.05172,-0.15468 -1.646671,-1.70197 -3.544344,-3.43836 -8.19209,-7.4959 -16.834678,-17.28933 -22.118437,-25.063704 -1.224221,-1.801288 -2.286582,-3.218439 -2.360804,-3.149225 -0.355112,0.331147 -11.605647,19.121599 -13.332734,22.268119 l -1.966614,3.58289 1.204677,1.01763 c 0.662572,0.5597 2.075771,1.27417 3.140443,1.58774 7.454167,2.19546 8.597565,3.32382 9.200448,9.07944 0.137252,1.31033 0.434046,3.20976 0.659541,4.22092 0.355368,1.59357 0.555824,1.80729 1.504587,1.60406 0.602028,-0.12893 7.082445,-2.75303 14.400928,-5.83132 z M 79.469159,64.633195 C 98.743455,48.725913 115.0922,35.262689 115.7997,34.714914 l 1.28637,-0.995948 -2.28768,-2.463596 -2.28768,-2.463595 -36.586303,30.091105 -36.58631,30.091102 2.206265,2.402161 c 1.213448,1.321189 2.357996,2.352034 2.543441,2.290768 0.185447,-0.06126 16.107055,-13.126436 35.381356,-29.033716 z"
       style="fill:#6f8a91;fill-opacity:1;fill-rule:nonzero;stroke:#6f8a91;stroke-width:0.47445256;stroke-opacity:1" />
    <path
       d="M 143.33152,36.660255 C 135.42163,27.63957 127.23195,18.280323 125.13223,15.861932 l -3.81767,-4.39708 5.0852,-4.7104275 c 3.15826,-2.9255052 5.97081,-5.0940886 7.42235,-5.7229143 2.33304,-1.01070163 2.34429,-1.01082693 6.37739,-0.071109 7.53639,1.7559971 13.97834,5.5727421 20.42251,12.0999598 7.44277,7.538719 12.02082,16.657444 12.42063,24.739792 0.15952,3.224869 0.0716,3.646147 -1.10465,5.295524 -0.70289,0.985565 -2.4499,2.713496 -3.88229,3.839852 -3.07842,2.420768 -9.18315,6.241363 -9.86441,6.173564 -0.26298,-0.02618 -6.94988,-7.42815 -14.85977,-16.448838 z"
       style="fill:#6f8a91;fill-opacity:1;fill-rule:nonzero;stroke:#6f8a91;stroke-width:0.47445256;stroke-opacity:1" />
  </g>
</svg>
