<?xml version="1.0" encoding="UTF-8" standalone="no"?>
<svg
   xmlns:dc="http://purl.org/dc/elements/1.1/"
   xmlns:cc="http://creativecommons.org/ns#"
   xmlns:rdf="http://www.w3.org/1999/02/22-rdf-syntax-ns#"
   xmlns:svg="http://www.w3.org/2000/svg"
   xmlns="http://www.w3.org/2000/svg"
   height="20"
   version="1.1"
   viewBox="0 0 173.25001 152.17183">
  <g>
    <path
       transform="scale(0.26458333)"
       d="m 46.582381,24.284272 0.174492,26.628329 C 31.689712,48.628232 16.230707,47.547415 1.1768811,46.900267 V 488.61682 c 33.8921269,-0.68575 67.8820069,1.68861 101.0359389,9.01325 63.31433,13.2584 124.42095,35.32429 184.38382,59.26599 13.73261,5.29709 27.12055,11.95709 40.84359,16.94668 68.523,-28.77282 138.109,-56.073 210.6075,-73.12401 37.88685,-8.01824 76.73458,-14.73715 115.58645,-11.50234 V 46.900267 c -15.46816,0.181493 -29.50142,0.414315 -45.4055,2.267414 V 1.494767 C 549.18827,6.0284828 492.02279,23.544049 436.3727,42.958619 399.55781,55.664708 363.86237,71.308567 327.56747,85.344182 307.77746,78.623586 288.79465,69.173749 269.11994,61.886062 198.56681,34.552074 126.05092,9.3551521 50.370672,1.542964 43.087666,0.01326151 48.014997,10.910671 46.582381,15.313832 Z m 22.481044,0.900321 c 66.706105,9.272965 130.888515,31.256064 193.571015,55.228064 18.43041,7.165498 36.71134,14.709263 54.90033,22.465623 -0.0465,140.50906 0.86426,281.0248 -0.20628,421.52969 -5.04348,-0.25217 -11.10612,-3.84107 -16.37848,-5.54436 C 230.82079,490.03004 159.08332,463.36909 84.189301,450.04093 78.2409,449.06463 72.278627,448.17526 66.323903,447.23867 V 25.184593 Z m 519.423735,0 V 447.23867 c -85.79726,12.10886 -167.05874,43.99495 -246.86157,76.42127 -4.7265,3.12701 -5.19579,-0.98635 -4.49299,-4.81004 -0.43419,-138.59956 0.0681,-277.20015 0.14369,-415.80004 55.63698,-24.198358 112.75448,-45.233864 171.1575,-61.725371 25.63191,-6.409308 51.36896,-13.193178 77.66472,-16.139896 z M 25.614725,68.916691 c 6.835893,0.167901 13.897699,2.246181 20.720887,2.660478 0.165436,124.865121 0.08511,248.249641 0.252553,373.114761 -8.874101,-0.35349 -17.87068,0.36154 -26.656838,-1.12395 0.238604,-121.28279 -0.544861,-242.57251 0.575867,-363.850666 0.700399,-3.235292 -0.892613,-8.372859 1.230559,-10.760138 1.29029,-0.09507 2.584903,-0.05379 3.876972,-0.04049 z m 606.525485,-0.0077 c 3.98081,0.294748 0.94193,7.329792 2.14132,9.916408 1.1551,117.127311 0.35533,234.267311 0.5982,351.399711 -1.36383,4.46005 3.28097,13.86963 -3.45284,13.91353 -7.70611,0.8021 -15.47056,0.47962 -23.204,0.5533 0.16745,-124.86512 0.33389,-248.24964 0.49932,-373.114759 7.80143,-0.450452 15.59679,-2.714547 23.418,-2.66819 z"
       style="fill:#6f8a91;fill-opacity:1;fill-rule:nonzero;stroke:none;stroke-width:0.9870761;stroke-opacity:1" />
  </g>
</svg>
