<?xml version="1.0" encoding="UTF-8" standalone="no"?>
<svg
   xmlns:dc="http://purl.org/dc/elements/1.1/"
   xmlns:cc="http://creativecommons.org/ns#"
   xmlns:rdf="http://www.w3.org/1999/02/22-rdf-syntax-ns#"
   xmlns:svg="http://www.w3.org/2000/svg"
   xmlns="http://www.w3.org/2000/svg"
   viewBox="0 0 173.25001 152.17183"
   version="1.1">
  <g>
    <path
       d="M 86.626953 0.001953125 A 86.624771 76.08493 0 0 0 0.001953125 76.085938 A 86.624771 76.08493 0 0 0 86.626953 152.17188 A 86.624771 76.08493 0 0 0 173.25 76.085938 A 86.624771 76.08493 0 0 0 86.626953 0.001953125 z M 86.486328 8.0605469 A 76.714188 67.380188 0 0 1 163.20117 75.441406 A 76.714188 67.380188 0 0 1 86.486328 142.82227 A 76.714188 67.380188 0 0 1 9.7714844 75.441406 A 76.714188 67.380188 0 0 1 86.486328 8.0605469 z "
       style="fill:#6f8a91;fill-opacity:1;fill-rule:nonzero;stroke:none;stroke-opacity:1" />
    <circle
       r="12.251122"
       cy="107.6809"
       cx="50.616478"
       style="fill:#6f8a91;fill-opacity:1;fill-rule:nonzero;stroke:none;stroke-opacity:1" />
    <circle
       r="12.251122"
       cy="107.6809"
       cx="85.435455"
       style="fill:#6f8a91;fill-opacity:1;fill-rule:nonzero;stroke:none;stroke-opacity:1" />
    <circle
       r="12.251122"
       cy="108.00331"
       cx="119.93204"
       style="fill:#6f8a91;fill-opacity:1;fill-rule:nonzero;stroke:none;stroke-opacity:1" />
    <path
       d="m 102.76905,47.831249 c 3.90414,-2.327281 5.92028,-3.522597 11.45086,-4.774927 3.24403,-0.811644 7.01679,-1.354698 11.23063,-0.680205 2.04284,0.267246 5.84684,1.594131 7.78511,5.011836 2.32734,4.325623 1.60136,8.17369 0.74091,11.025437 -1.51812,4.133594 -4.56831,6.828717 -6.27531,8.315576 -2.40921,1.809689 -6.98717,3.966055 -12.35869,6.410523 l 0.12378,14.583617 8.32653,-0.02158 -0.068,-10.69326 c 3.33621,-1.474936 6.60658,-2.801744 11.12273,-6.931556 4.70014,-4.324825 6.49575,-7.32941 7.89875,-10.155535 2.51051,-5.561594 1.5326,-9.081527 0.80599,-12.57352 -1.7669,-5.452166 -4.43728,-7.290416 -7.09275,-9.188341 -3.64656,-2.105672 -7.01441,-2.942005 -10.47793,-3.546378 -3.89659,-0.706693 -8.37751,-0.611964 -12.3179,0.255627 -1.95111,0.292241 -7.22085,1.698818 -11.05595,3.290751 z"
       style="fill:#6f8a91;fill-opacity:1;stroke:#6f8a91;stroke-width:1px;stroke-linecap:butt;stroke-linejoin:miter;stroke-opacity:1" />
  </g>
</svg>
