<?xml version="1.0" encoding="UTF-8" standalone="no"?>
<svg
   xmlns:dc="http://purl.org/dc/elements/1.1/"
   xmlns:cc="http://creativecommons.org/ns#"
   xmlns:rdf="http://www.w3.org/1999/02/22-rdf-syntax-ns#"
   xmlns:svg="http://www.w3.org/2000/svg"
   xmlns="http://www.w3.org/2000/svg"
   width="22.770315"
   height="20"
   version="1.1"
   viewBox="0 0 22.770315 152.17183">
  <g transform="translate(-53.81418,-26.295725)">
    <path
       d="M -21.425676,112.57905 V 46.690541 h 10.535473 10.53547219 l 0.0033,-6.772804 c 0.0031,-6.400356 0.04642,-6.865469 0.787926,-8.457845 C 1.3707262,29.453652 3.7755692,27.228747 5.6009692,26.681845 6.4762612,26.4196 10.077645,26.290963 16.407078,26.29586 c 10.67226,0.0083 11.064682,0.08128 13.494324,2.510917 2.175196,2.175195 2.334181,2.849549 2.520927,10.692884 l 0.16723,7.02365 33.33097,0.08522 33.33097,0.08523 0.11497,-6.272725 c 0.12954,-7.067517 0.41882,-8.132623 2.879781,-10.603254 2.62545,-2.635742 2.83167,-2.680483 12.89162,-2.796826 7.74646,-0.08959 9.20118,-0.02598 10.68585,0.467132 2.20708,0.733076 4.61964,2.978129 5.64265,5.250889 0.71325,1.584579 0.79531,2.301092 0.89869,7.847677 l 0.11376,6.103887 h 9.67277 9.67276 v 65.888509 65.88851 h -86.624981 -86.625 z m 160.874996,9.36487 V 79.467566 H 64.864859 -9.7195938 v 42.476354 42.47635 H 64.864859 139.44932 Z M 122.72635,53.212499 V 39.332431 h -6.85642 -6.85642 v 13.880068 13.880068 h 6.85642 6.85642 z M 23.057431,52.041893 V 38.663514 H 16.033783 9.0101362 v 13.378379 13.378378 h 7.0236468 7.023648 z"
       style="fill:#6f8a91" />
    <path
       d="m -0.02027081,146.69392 v -9.36487 H 13.358107 26.736486 v 9.36487 9.36486 H 13.358107 -0.02027081 Z"
       style="fill:#6f8a91" />
    <path
       d="m 0.64864919,121.77669 v -9.19764 H 14.194257 27.739865 v 9.19764 9.19763 H 14.194257 0.64864919 Z"
       style="fill:#6f8a91" />
    <path
       d="m 34.094593,122.11115 v -9.19764 h 13.378386 13.37837 v 9.19764 9.19763 H 47.472979 34.094593 Z"
       style="fill:#6f8a91" />
    <path
       d="m 33.091216,147.02838 v -9.36487 h 13.545613 13.5456 v 9.36487 9.36486 h -13.5456 -13.545613 z"
       style="fill:#6f8a91" />
    <path
       d="m 67.206079,147.02838 v -9.36487 h 13.5456 13.54561 v 9.36487 9.36486 h -13.54561 -13.5456 z"
       style="fill:#6f8a91" />
    <path
       d="m 67.874989,122.11115 v -9.19764 h 13.54561 13.54561 v 9.19764 9.19763 h -13.54561 -13.54561 z"
       style="fill:#6f8a91" />
    <path
       d="m 100.98648,97.862836 v -9.364864 h 13.37838 13.37838 v 9.364864 9.364864 h -13.37838 -13.37838 z"
       style="fill:#6f8a91" />
    <path
       d="m 66.871619,97.862836 v -9.364864 h 13.37837 13.37838 v 9.364864 9.364864 h -13.37838 -13.37837 z"
       style="fill:#6f8a91" />
    <path
       d="m 33.760133,97.361149 v -9.197636 h 13.378386 13.37837 v 9.197636 9.197631 H 47.138519 33.760133 Z"
       style="fill:#6f8a91" />
    <path
       d="m 100.93455,122.11822 v -9.19764 h 13.54561 13.54561 v 9.19764 9.19763 h -13.54561 -13.54561 z"
       style="fill:#6f8a91" />
  </g>
</svg>
